<svg xmlns="http://www.w3.org/2000/svg" width="22" height="21" viewBox="0 0 22 21" fill="none">
  <path fill-rule="evenodd" clip-rule="evenodd" d="M8.52909 0.0727042C9.98622 -0.0241261 11.5104 -0.0243433 12.9705 0.0727042C17.5366 0.376597 21.1597 4.06303 21.4578 8.67231V8.67329C21.5134 9.53542 21.5135 10.4274 21.4578 11.2895C21.1598 15.8989 17.5367 19.5853 12.9705 19.8891C11.5104 19.9862 9.98623 19.986 8.52909 19.8891C7.96452 19.8515 7.34948 19.7183 6.80839 19.4956C6.57118 19.3978 6.40895 19.3319 6.29081 19.2885C6.20955 19.3444 6.10017 19.4228 5.94315 19.5385C5.15093 20.1226 4.15045 20.5329 2.73124 20.4985C2.4447 20.4915 2.13287 20.4865 1.88163 20.4379C1.59493 20.3824 1.23941 20.243 1.01737 19.8647C0.776022 19.4529 0.8729 19.0362 0.966592 18.7739C1.0591 18.515 1.22254 18.2086 1.38651 17.8979C1.85742 17.0054 1.98495 16.2777 1.72538 15.7963C0.896758 14.5424 0.152343 12.9995 0.0417877 11.2895C-0.0139283 10.4272 -0.0139301 9.53461 0.0417877 8.67231C0.33992 4.06295 3.96282 0.376473 8.52909 0.0727042ZM10.5164 5.88032C9.80742 7.79631 8.29663 9.30705 6.38065 10.0161L5.7498 10.2495L6.38065 10.4829C8.29663 11.1919 9.80742 12.7026 10.5164 14.6186L10.7498 15.2495L10.9832 14.6186C11.6922 12.7026 13.2029 11.1919 15.1189 10.4829L15.7498 10.2495L15.1189 10.0161C13.2029 9.30707 11.6922 7.79634 10.9832 5.88032L10.7498 5.24946L10.5164 5.88032Z" fill="white"/>
</svg>