<svg width="13" height="12" viewBox="0 0 13 12" fill="none" xmlns="http://www.w3.org/2000/svg">
<path d="M4.74609 11.7332C4.32422 11.7332 4.00781 11.5815 3.72437 11.2454L0.322998 7.12549C0.0856934 6.85522 0 6.61133 0 6.33447C0 5.71484 0.461426 5.26001 1.10083 5.26001C1.46997 5.26001 1.73364 5.39185 1.97754 5.68188L4.71313 9.07666L10.1052 0.573242C10.3689 0.157959 10.6392 -0.000244141 11.0742 -0.000244141C11.707 -0.000244141 12.1685 0.447998 12.1685 1.06763C12.1685 1.29834 12.0959 1.54224 11.9246 1.80591L5.78101 11.1992C5.5437 11.5618 5.19434 11.7332 4.74609 11.7332Z" fill="white"/>
</svg>
