<svg width="20" height="11" viewBox="0 0 20 11" fill="none" xmlns="http://www.w3.org/2000/svg">
<path d="M1.31959 0.416858C1.17002 0.0678649 0.765852 -0.0938075 0.416858 0.055765C0.067865 0.205337 -0.0938076 0.609505 0.0557649 0.958499L1.31959 0.416858ZM7.14234 6.8639C7.34942 6.54573 7.2593 6.11984 6.94104 5.91277C6.62278 5.70569 6.19692 5.7958 5.98983 6.11407L7.14234 6.8639ZM4.69476 8.10443C4.48767 8.4226 4.5778 8.84849 4.89606 9.05556C5.21432 9.26264 5.64018 9.17253 5.84726 8.85426L4.69476 8.10443ZM19.653 0.958499C19.8025 0.609505 19.6409 0.205337 19.2918 0.055765C18.9428 -0.0938075 18.5387 0.0678649 18.3891 0.416858L19.653 0.958499ZM17.1599 6.33361C17.4284 6.6021 17.8636 6.6021 18.1321 6.33361C18.4006 6.06512 18.4006 5.6298 18.1321 5.3613L17.1599 6.33361ZM9.16684 9.39601C9.16684 9.77569 9.47466 10.0835 9.85434 10.0835C10.234 10.0835 10.5418 9.77569 10.5418 9.39601H9.16684ZM13.8615 8.85426C14.0685 9.17253 14.4944 9.26264 14.8126 9.05556C15.1309 8.84849 15.221 8.4226 15.0139 8.10443L13.8615 8.85426ZM3.92381 4.95861C4.1923 4.69012 4.1923 4.2548 3.92381 3.9863C3.65533 3.71781 3.22002 3.71781 2.95154 3.9863L3.92381 4.95861ZM1.57654 5.3613C1.30806 5.6298 1.30806 6.06512 1.57654 6.33361C1.84502 6.6021 2.28033 6.6021 2.54881 6.33361L1.57654 5.3613ZM9.85434 6.41684C6.89911 6.41684 4.77723 4.94523 3.36856 3.4282C2.66442 2.66991 2.14816 1.90945 1.80839 1.33864C1.63889 1.05389 1.51439 0.818139 1.4333 0.655934C1.39277 0.574892 1.36316 0.512366 1.34426 0.471446C1.33482 0.450995 1.32805 0.435962 1.32395 0.426731C1.32189 0.42212 1.32032 0.418517 1.31959 0.416858C1.31957 0.416822 1.31962 0.416932 1.31959 0.416858C1.31968 0.417069 1.31959 0.416858 0.687678 0.687678C0.0557649 0.958498 0.0556274 0.958187 0.0557649 0.958499C0.0558199 0.958636 0.0562233 0.959562 0.0563425 0.959837C0.0565716 0.960377 0.0568558 0.961028 0.0571767 0.961762C0.0578092 0.963247 0.0586249 0.965117 0.0596057 0.967372C0.0615766 0.971873 0.0642349 0.977913 0.0675808 0.985439C0.0742724 1.00049 0.0837324 1.02148 0.0959974 1.04803C0.120509 1.10111 0.15625 1.17645 0.203458 1.27085C0.297811 1.45957 0.43829 1.72512 0.626867 2.04192C1.00324 2.67424 1.57552 3.51798 2.36096 4.36379C3.93146 6.05513 6.39291 7.79184 9.85434 7.79184V6.41684ZM12.8908 5.84925C12.0013 6.19941 10.9926 6.41684 9.85434 6.41684V7.79184C11.1727 7.79184 12.3519 7.53903 13.3944 7.12873L12.8908 5.84925ZM5.98983 6.11407L4.69476 8.10443L5.84726 8.85426L7.14234 6.8639L5.98983 6.11407ZM19.021 0.687678C18.3891 0.416858 18.389 0.416987 18.3891 0.416858C18.3892 0.416712 18.3895 0.415877 18.3895 0.415978C18.3894 0.416162 18.3892 0.416822 18.3886 0.417958C18.3876 0.420223 18.3858 0.424366 18.3831 0.430315C18.3778 0.442223 18.3692 0.461344 18.3572 0.487158C18.3331 0.538784 18.2956 0.617049 18.2442 0.717626C18.1416 0.918926 17.9843 1.20863 17.7701 1.55228C17.3407 2.24158 16.6893 3.13698 15.8005 3.97118L16.7415 4.97374C17.7398 4.03672 18.4634 3.03973 18.9371 2.27943C19.1746 1.8983 19.351 1.57391 19.4692 1.34232C19.5282 1.22645 19.5728 1.13357 19.6034 1.06816C19.6186 1.03545 19.6303 1.00959 19.6386 0.991132C19.6427 0.981901 19.646 0.974522 19.6484 0.969059C19.6496 0.966327 19.6505 0.964081 19.6513 0.962312C19.6517 0.961432 19.652 0.960671 19.6522 0.960038C19.6524 0.959718 19.6529 0.958755 19.653 0.958499C19.653 0.958563 19.6531 0.95837 19.653 0.958499C19.6531 0.958343 19.653 0.958498 19.021 0.687678ZM15.8005 3.97118C15.0131 4.71019 14.0471 5.39412 12.8908 5.84925L13.3944 7.12873C14.7452 6.59706 15.8554 5.80543 16.7415 4.97374L15.8005 3.97118ZM15.7849 4.95861L17.1599 6.33361L18.1321 5.3613L16.7571 3.9863L15.7849 4.95861ZM9.16684 7.10434V9.39601H10.5418V7.10434H9.16684ZM12.5664 6.8639L13.8615 8.85426L15.0139 8.10443L13.7188 6.11407L12.5664 6.8639ZM2.95154 3.9863L1.57654 5.3613L2.54881 6.33361L3.92381 4.95861L2.95154 3.9863Z" fill="white"/>
</svg>
