<svg xmlns="http://www.w3.org/2000/svg" width="18" height="20" viewBox="0 0 18 20" fill="none">
  <path fill-rule="evenodd" clip-rule="evenodd" d="M8.99997 0C7.88617 0 6.87177 0.6007 4.84308 1.80211L4.15693 2.20846C2.12821 3.40987 1.11385 4.01057 0.55693 5C-1.78814e-07 5.98943 0 7.19084 0 9.5937V10.4063C0 12.8092 -1.78814e-07 14.0106 0.55693 15C1.11385 15.9894 2.12821 16.5901 4.15693 17.7915L4.84308 18.1979C6.87177 19.3993 7.88617 20 8.99997 20C10.1139 20 11.1282 19.3993 13.157 18.1979L13.8431 17.7915C15.8718 16.5901 16.8862 15.9894 17.4431 15C18 14.0106 18 12.8092 18 10.4063V9.5937C18 7.19084 18 5.98943 17.4431 5C16.8862 4.01057 15.8718 3.40987 13.8431 2.20846L13.157 1.80211C11.1282 0.6007 10.1139 0 8.99997 0ZM5.25 10C5.25 7.92893 6.92897 6.25 8.99997 6.25C11.0711 6.25 12.75 7.92893 12.75 10C12.75 12.0711 11.0711 13.75 8.99997 13.75C6.92897 13.75 5.25 12.0711 5.25 10Z" fill="white"/>
</svg>