<svg xmlns="http://www.w3.org/2000/svg" width="24" height="24" viewBox="0 0 24 24" fill="none">
  <path d="M13.9549 5.18341L18.9328 9.60815C19.8633 10.4353 20.3286 10.8489 20.5001 11.3373C20.6507 11.7662 20.6507 12.2335 20.5001 12.6624C20.3286 13.1508 19.8633 13.5644 18.9328 14.3916L13.9549 18.8163C13.5326 19.1917 13.3215 19.3794 13.1421 19.3861C12.9863 19.3919 12.8367 19.3247 12.7376 19.2044C12.6234 19.0659 12.6234 18.7834 12.6234 18.2184V15.4284C10.1953 15.4284 7.63077 16.2083 5.75816 17.5926C4.78327 18.3133 4.2958 18.6737 4.11014 18.6595C3.92916 18.6456 3.81431 18.575 3.72041 18.4196C3.62408 18.2603 3.70916 17.7624 3.87933 16.7666C4.98431 10.3004 9.43428 8.57129 12.6234 8.57129V5.78134C12.6234 5.21632 12.6234 4.93381 12.7376 4.79531C12.8367 4.67498 12.9863 4.6078 13.1421 4.61363C13.3215 4.62034 13.5326 4.80803 13.9549 5.18341Z" fill="white"/>
</svg>