<svg xmlns="http://www.w3.org/2000/svg" width="18" height="18" viewBox="0 0 18 18" fill="none">
  <path d="M6.86487 4.05628C7.81485 2.3521 8.28983 1.5 9 1.5C9.71018 1.5 10.1852 2.35209 11.1351 4.05628L11.3809 4.49717C11.6509 4.98145 11.7858 5.22359 11.9963 5.38336C12.2068 5.54312 12.4688 5.60243 12.9931 5.72104L13.4704 5.82902C15.3151 6.24642 16.2375 6.45512 16.457 7.1608C16.6764 7.86645 16.0476 8.60183 14.7899 10.0724L14.4646 10.4529C14.1072 10.8708 13.9285 11.0798 13.8481 11.3383C13.7678 11.5968 13.7948 11.8756 13.8488 12.4332L13.898 12.9408C14.0881 14.903 14.1832 15.884 13.6087 16.3202C13.0341 16.7563 12.1705 16.3586 10.4432 15.5634L9.99638 15.3576C9.50558 15.1316 9.26018 15.0186 9 15.0186C8.73983 15.0186 8.49443 15.1316 8.00363 15.3576L7.55678 15.5634C5.82951 16.3586 4.96589 16.7563 4.39136 16.3202C3.81684 15.884 3.91191 14.903 4.10205 12.9408L4.15124 12.4332C4.20527 11.8756 4.23229 11.5968 4.1519 11.3383C4.07151 11.0798 3.89282 10.8708 3.53544 10.4529L3.21008 10.0724C1.95244 8.60183 1.32362 7.86645 1.54307 7.1608C1.76252 6.45512 2.6849 6.24642 4.52966 5.82902L5.00692 5.72104C5.53114 5.60243 5.79325 5.54312 6.00371 5.38336C6.21416 5.22359 6.34915 4.98146 6.6191 4.49717L6.86487 4.05628Z" fill="#FFEA32"/>
</svg>